# xmcd CD database file
#
# Track frame offsets:
#	150
#	18545
#	39765
#	54175
#	73617
#	89152
#	104227
#	119012
#	139562
#	164645
#	185420
#
# Disc length: 2744 seconds
#
# Revision: 2
# Processed by: cddbd v1.5.1PL0 Copyright (c) Steve Scherf et al.
# Submitted via: CDex 1.51
#
DISCID=9e0ab60b
DTITLE=レミオロメン - 朝顔
DYEAR=2003
DGENRE=Rock
TTITLE0=まめ電球
TTITLE1=雨上がり
TTITLE2=日めくりカレンダー
TTITLE3=ビールとプリン
TTITLE4=朝顔
TTITLE5=昭和
TTITLE6=すきま風
TTITLE7=フェスタ
TTITLE8=電話
TTITLE9=タクシードライバー
TTITLE10=追いかけっこ
EXTD=YEAR: 2003
EXTT0=
EXTT1=
EXTT2=
EXTT3=
EXTT4=
EXTT5=
EXTT6=
EXTT7=
EXTT8=
EXTT9=
EXTT10=
PLAYORDER=
